# xmcd
# 
# Track frame offsets:
#     150
#     19679
#     34770
#     55571
#     72241
#     94558
#     111392
#     131690
#     145129
#     160885
#     176510
#     198733
#     214606
#     225675
# 
# Disc length: 3341
# 
# Revision: 0
# Processed by: cddbd v1.5.2PL0 Copyright (c) Steve Scherf et al.
# Submitted via: fre:ac v1.1beta1pre4
# 
DISCID=c00d0b0e
DTITLE=Matt Nakoa - Casting Shadows
DYEAR=2019
DGENRE=Folk
TTITLE0=Touch and Go
TTITLE1=All She Knows Is Leaving
TTITLE2=You Got a Light
TTITLE3=I Am Not Afraid of Fear
TTITLE4=Last Night in the Nursery
TTITLE5=Dancing on the Ledge
TTITLE6=Sleepwalking Away
TTITLE7=You Better Be Good
TTITLE8=I Can't Hold You
TTITLE9=Love Is a Loaded Gun
TTITLE10=The Whole Way Down
TTITLE11=Ghosts
TTITLE12=Waltz in the Dark
TTITLE13=Lightning
EXTD=
EXTT0=
EXTT1=
EXTT2=
EXTT3=
EXTT4=
EXTT5=
EXTT6=
EXTT7=
EXTT8=
EXTT9=
EXTT10=
EXTT11=
EXTT12=
EXTT13=
PLAYORDER=
